<svg width="64" height="52" viewBox="0 0 64 52" fill="none" xmlns="http://www.w3.org/2000/svg">
<path d="M6.27771 27.4409C7.92104 26.5921 8.10619 25.1281 8.3708 23.4676C9.55888 16.0184 13.8799 10.9677 21.1133 8.82931C28.4492 6.6613 34.8627 8.62907 40.0384 14.2912C41.421 15.8037 41.3706 15.8182 43.3613 15.1476C43.9538 14.9473 43.9204 14.7628 43.6037 14.3302C38.3543 7.16505 30.0432 3.7679 21.1129 5.99825C11.4476 8.41309 4.93055 17.3036 5.43345 27.2004C5.44674 27.4623 5.41576 27.7381 5.68969 28.041C5.90859 27.8112 6.0561 27.5555 6.27771 27.4409Z" fill="white"/>
<path d="M23.973 43.8444C23.339 43.76 22.564 43.4041 22.1107 43.6466C21.5869 43.9268 21.8476 44.8472 21.6335 45.4545C21.4408 46.0016 21.7072 46.1617 22.1825 46.2485C23.5304 46.4945 24.8859 46.6362 25.9581 46.6344C27.8713 46.66 29.4623 46.4709 31.0356 46.1115C40.9061 43.8574 48.1695 34.746 47.0533 23.6068C46.9242 22.3204 47.1012 22.2448 45.8004 22.8883C45.5367 23.0193 45.2785 23.1648 45.0047 23.2674C44.472 23.4677 44.3121 23.8052 44.3663 24.3794C44.4978 25.7855 44.467 27.191 44.2662 28.5996C42.8887 38.2604 33.7384 45.1446 23.973 43.8444Z" fill="white"/>
<path d="M1.89737 35.7812C2.22916 35.5842 2.23848 35.2353 2.33688 34.952C2.64229 34.0735 2.89859 33.1775 3.20179 32.2978C3.39092 31.7494 3.39583 31.2217 3.27439 30.6537C2.73553 28.1337 2.57662 25.5835 2.9057 23.027C4.36802 11.6624 14.1377 2.82665 25.6689 2.66545C34.1367 2.5477 40.9066 6.00908 45.8103 12.9318C46.642 14.1056 46.6225 14.1194 48.0409 13.7026C48.0925 13.6875 48.1461 13.6793 48.1971 13.6635C49.3819 13.3046 49.3939 13.2958 48.724 12.2593C42.8891 3.23658 32.4041 -1.54651 21.3664 0.450222C8.72854 2.73661 -1.01757 14.4034 0.0851364 28.2307C0.291953 30.8237 0.916114 33.3123 1.89737 35.7812Z" fill="white"/>
<path d="M31.5594 21.5986C31.4744 21.7831 31.2515 21.8228 31.0639 21.7989C30.5363 21.729 30.2259 22.0508 29.8998 22.3776C29.4094 22.87 28.9076 23.3504 28.4021 23.8271C27.153 25.0046 25.642 25.7332 24.0517 26.327C23.4857 26.5379 23.2301 26.383 23.2861 25.7659C23.31 25.4958 23.3201 25.1973 23.5153 25.0159C24.0196 24.5475 23.9245 24.1766 23.5172 23.6709C22.96 22.9789 23.1627 22.4317 23.9843 22.0816C24.5056 21.86 25.0011 21.5955 25.3662 21.149C25.5117 20.9702 25.7434 20.7863 25.6187 20.5301C25.5129 20.3122 25.2428 20.3519 25.0363 20.35C24.313 20.3418 23.5877 20.3311 22.8656 20.3645C22.3235 20.389 21.9583 20.1932 21.6662 19.7379C21.1978 19.0069 20.5721 18.4275 19.764 18.0705C18.3209 17.4326 17.7491 17.7229 17.299 19.2298C17.1584 19.7014 17.2223 19.9564 17.6726 20.1869C18.9394 20.8355 19.3115 22.0035 19.4293 23.2616C19.3784 23.9216 19.2876 24.5273 18.9615 25.0657C18.3701 26.0436 17.2976 26.2791 16.4206 25.6337C15.1398 24.691 14.7714 22.0621 15.792 20.8487C16.2233 20.3361 16.5015 19.7958 16.5615 19.1359C16.5945 18.7751 16.9439 18.3136 16.6675 18.0875C16.3136 17.7985 15.864 18.1845 15.4908 18.3438C13.1714 19.3368 12.4358 20.5848 12.6572 23.1055C12.7058 23.6609 12.7897 24.2137 12.8652 24.7666C13.0698 26.2634 13.0336 26.3874 11.6513 26.9264C7.98374 28.3577 5.68704 30.9514 4.77856 34.7654C4.48297 36.0071 4.17183 37.2461 3.8177 38.472C3.64437 39.0719 3.78106 39.5505 4.10888 40.0457C4.78913 41.0726 5.58524 42.0061 6.39015 42.9342C9.44952 46.4618 13.241 48.9297 17.5924 50.5959C18.1445 50.8072 18.3324 50.6566 18.3152 50.0958C18.2946 49.4285 18.3137 48.7511 18.5225 48.1165C19.5075 45.121 19.8643 42.0455 19.762 38.9088C19.7492 38.5158 19.8894 38.2774 20.2229 38.0654C21.6958 37.1295 23.0292 36.0166 24.2771 34.8038C24.6428 34.448 25.042 34.261 25.5551 34.2352C27.0271 34.1621 28.5009 34.067 29.9187 33.6269C33.0452 32.6553 35.8607 31.2473 37.2331 28.0359C37.8684 26.5486 38.8348 25.4045 40.2557 24.6438C40.682 24.4152 40.8778 24.1495 40.6177 23.6936C40.3011 23.1389 40.5101 22.8523 41.0616 22.6043C42.4013 22.001 43.7127 21.3348 45.0424 20.7076C45.4359 20.5219 45.7733 20.3046 45.6399 19.8135C45.5221 19.3796 45.7375 19.2335 46.0951 19.1504C46.5729 19.0402 47.0338 18.8683 47.3448 18.4792C47.8919 17.7947 48.6474 17.478 49.4457 17.228C53.7306 15.8861 58.0136 14.538 62.3048 13.2156C63.739 12.7736 63.6798 13.0576 63.2838 11.4475C63.2712 11.3958 63.2498 11.3461 63.2353 11.2951C63.1692 11.064 63.1213 10.797 62.8317 10.7599C62.5402 10.7227 62.2796 10.8694 62.1764 11.1307C61.8855 11.8618 61.2144 12.0041 60.5797 12.1993C51.3841 15.0348 42.1879 17.8671 32.9898 20.6957C32.4263 20.8688 31.8427 20.9803 31.5594 21.5986Z" fill="white"/>
<path d="M49.8929 19.477C49.2362 19.6476 49.0568 19.97 49.2174 20.6255C49.6493 22.3886 49.9149 24.1776 49.8683 25.5875C49.8539 28.4129 49.4944 30.7622 48.7578 33.0688C45.2561 44.0348 34.071 50.8779 22.6146 49.0346C20.5425 48.7011 20.5537 48.7006 20.6487 50.813C20.6691 51.2675 20.8243 51.468 21.2855 51.5482C24.3478 52.0795 27.4126 52.1683 30.4868 51.6732C43.9862 49.499 55.1178 37.0593 52.0882 20.7634C51.6746 18.5356 51.9415 18.9462 49.8929 19.477Z" fill="white"/>
</svg>
